<svg xmlns="http://www.w3.org/2000/svg" viewBox="0 0 84 84"><defs><style>.cls-1{fill:#522d6d;}</style></defs><title>Asset 9</title><g id="Layer_2" data-name="Layer 2"><g id="Layer_1-2" data-name="Layer 1"><path class="cls-1" d="M16.26,65a1.35,1.35,0,0,1,1.35,1.36h2.71a4.07,4.07,0,0,0-4.06-4.07V59.61H13.55v2.71H9.48v4.07a4.07,4.07,0,0,0,4.07,4.06h2.71a1.35,1.35,0,0,1,1.35,1.36v1.35H13.55a1.36,1.36,0,0,1-1.36-1.35H9.48a4.07,4.07,0,0,0,4.07,4.06v2.71h2.71V75.87h4.06V71.81a4.07,4.07,0,0,0-4.06-4.07H13.55a1.36,1.36,0,0,1-1.36-1.35V65Z"/><path class="cls-1" d="M66.39,12.19a4.07,4.07,0,1,0-4.07,4.07A4.07,4.07,0,0,0,66.39,12.19Zm-5.42,0a1.36,1.36,0,1,1,1.35,1.36A1.35,1.35,0,0,1,61,12.19Z"/><path class="cls-1" d="M73.16,16.26a4.07,4.07,0,1,0,4.07,4.06A4.06,4.06,0,0,0,73.16,16.26Zm0,5.42a1.36,1.36,0,1,1,1.36-1.36A1.35,1.35,0,0,1,73.16,21.68Z"/><path class="cls-1" d="M61.21,23.64,72.06,7.39l2.25,1.5L63.47,25.15Z"/><path class="cls-1" d="M61,48.77H55.55a4.08,4.08,0,0,0-4.07,4.07V74.52a4.07,4.07,0,0,0,4.07,4.06H61A4.06,4.06,0,0,0,65,74.52V52.84A4.07,4.07,0,0,0,61,48.77Zm1.35,25.75A1.35,1.35,0,0,1,61,75.87H55.55a1.36,1.36,0,0,1-1.36-1.35V52.84a1.36,1.36,0,0,1,1.36-1.36H61a1.35,1.35,0,0,1,1.35,1.36Z"/><path class="cls-1" d="M44.71,65H39.29a4.07,4.07,0,0,0-4.06,4.07v5.42a4.06,4.06,0,0,0,4.06,4.06h5.42a4.06,4.06,0,0,0,4.06-4.06V69.1A4.07,4.07,0,0,0,44.71,65Zm1.35,9.49a1.35,1.35,0,0,1-1.35,1.35H39.29a1.35,1.35,0,0,1-1.35-1.35V69.1a1.35,1.35,0,0,1,1.35-1.36h5.42a1.35,1.35,0,0,1,1.35,1.36Z"/><path class="cls-1" d="M44.71,48.77H39.29a4.07,4.07,0,0,0-4.06,4.07v5.42a4.06,4.06,0,0,0,4.06,4.06h5.42a4.06,4.06,0,0,0,4.06-4.06V52.84A4.07,4.07,0,0,0,44.71,48.77Zm1.35,9.49a1.34,1.34,0,0,1-1.35,1.35H39.29a1.34,1.34,0,0,1-1.35-1.35V52.84a1.35,1.35,0,0,1,1.35-1.36h5.42a1.35,1.35,0,0,1,1.35,1.36Z"/><path class="cls-1" d="M44.71,32.52H39.29a4.06,4.06,0,0,0-4.06,4.06V42a4.06,4.06,0,0,0,4.06,4.06h5.42A4.06,4.06,0,0,0,48.77,42V36.58A4.06,4.06,0,0,0,44.71,32.52ZM46.06,42a1.34,1.34,0,0,1-1.35,1.35H39.29A1.34,1.34,0,0,1,37.94,42V36.58a1.34,1.34,0,0,1,1.35-1.35h5.42a1.34,1.34,0,0,1,1.35,1.35Z"/><path class="cls-1" d="M28.45,32.52H23A4.06,4.06,0,0,0,19,36.58V42A4.06,4.06,0,0,0,23,46.06h5.42A4.07,4.07,0,0,0,32.52,42V36.58A4.07,4.07,0,0,0,28.45,32.52ZM29.81,42a1.35,1.35,0,0,1-1.36,1.35H23A1.34,1.34,0,0,1,21.68,42V36.58A1.34,1.34,0,0,1,23,35.23h5.42a1.35,1.35,0,0,1,1.36,1.35Z"/><path class="cls-1" d="M51.48,36.58V42a4.07,4.07,0,0,0,4.07,4.06H61A4.06,4.06,0,0,0,65,42V36.58A4.06,4.06,0,0,0,61,32.52H55.55A4.07,4.07,0,0,0,51.48,36.58Zm10.84,0V42A1.34,1.34,0,0,1,61,43.35H55.55A1.35,1.35,0,0,1,54.19,42V36.58a1.35,1.35,0,0,1,1.36-1.35H61A1.34,1.34,0,0,1,62.32,36.58Z"/><path class="cls-1" d="M84,16.26A16.27,16.27,0,0,0,67.74,0H20.32a6.78,6.78,0,0,0-6.77,6.77V54.26A14.9,14.9,0,0,0,14.9,84H63.68a6.78,6.78,0,0,0,6.77-6.77v-45A16.26,16.26,0,0,0,84,16.26ZM2.71,69.1A12.2,12.2,0,1,1,14.9,81.29,12.21,12.21,0,0,1,2.71,69.1Zm19-13.26v-3A1.35,1.35,0,0,1,23,51.48h5.42a1.36,1.36,0,0,1,1.36,1.36v5.42a1.35,1.35,0,0,1-1.36,1.35H26.39A15,15,0,0,0,21.68,55.84ZM67.74,77.23a4.06,4.06,0,0,1-4.06,4.06H23.45a14.83,14.83,0,0,0,4.71-19h.29a4.07,4.07,0,0,0,4.07-4.06V52.84a4.08,4.08,0,0,0-4.07-4.07H23A4.07,4.07,0,0,0,19,52.84v1.93a15.26,15.26,0,0,0-2.71-.51V6.77a4.06,4.06,0,0,1,4.06-4.06H58.77a16.41,16.41,0,0,0-3.11,2.71h-34A2.71,2.71,0,0,0,19,8.13V24.39a2.71,2.71,0,0,0,2.71,2.71h34a16.22,16.22,0,0,0,12.08,5.42ZM53.68,8.13a16.12,16.12,0,0,0,0,16.26h-32V8.13ZM67.74,29.81A13.55,13.55,0,1,1,81.29,16.26,13.57,13.57,0,0,1,67.74,29.81Z"/></g></g></svg>