<svg xmlns="http://www.w3.org/2000/svg" viewBox="0 0 82 82"><defs><style>.cls-1{fill:#522d6d;}</style></defs><title>Asset 8</title><g id="Layer_2" data-name="Layer 2"><g id="Layer_1-2" data-name="Layer 1"><path class="cls-1" d="M77.9,16.4H75.17v-15A1.37,1.37,0,0,0,73.8,0H8.2A1.37,1.37,0,0,0,6.83,1.37v15H4.1A4.11,4.11,0,0,0,0,20.5V64.23a4.1,4.1,0,0,0,4.1,4.1H34.17V73.8H28.7a1.37,1.37,0,0,0-1.37,1.37v4.1H24.6V82H57.4V79.27H54.67v-4.1A1.37,1.37,0,0,0,53.3,73.8H47.83V68.33H77.9a4.1,4.1,0,0,0,4.1-4.1V20.5A4.11,4.11,0,0,0,77.9,16.4ZM72.43,53.3H9.57V13.67H72.43Zm0-50.57v8.2H9.57V2.73ZM4.1,19.13H6.83V54.67A1.37,1.37,0,0,0,8.2,56H73.8a1.37,1.37,0,0,0,1.37-1.36V19.13H77.9a1.38,1.38,0,0,1,1.37,1.37V58.77H2.73V20.5A1.38,1.38,0,0,1,4.1,19.13ZM51.93,79.27H30.07V76.53H51.93ZM45.1,73.8H36.9V68.33h8.2Zm32.8-8.2H4.1a1.37,1.37,0,0,1-1.37-1.37V61.5H79.27v2.73A1.37,1.37,0,0,1,77.9,65.6Z"/><path class="cls-1" d="M12.3,5.47H15V8.2H12.3Z"/><path class="cls-1" d="M17.77,5.47H20.5V8.2H17.77Z"/><path class="cls-1" d="M23.23,5.47H26V8.2H23.23Z"/><path class="cls-1" d="M42.37,17.77A1.37,1.37,0,0,0,41,16.4H35.53a1.36,1.36,0,0,0-1.36,1.37V36.9H31.43v-15a1.36,1.36,0,0,0-1.36-1.37H24.6a1.37,1.37,0,0,0-1.37,1.37v15H20.5V28.7a1.37,1.37,0,0,0-1.37-1.37H13.67A1.37,1.37,0,0,0,12.3,28.7v8.2H10.93v2.73h32.8V36.9H42.37ZM15,36.9V30.07h2.74V36.9ZM26,36.9V23.23H28.7V36.9Zm10.93,0V19.13h2.73V36.9Z"/><path class="cls-1" d="M65.6,39.63H57.4v-8.2A1.36,1.36,0,0,0,56,30.07,10.93,10.93,0,1,0,67,41,1.38,1.38,0,0,0,65.6,39.63ZM56,49.2a8.2,8.2,0,0,1-1.36-16.29V41A1.37,1.37,0,0,0,56,42.37h8.09A8.22,8.22,0,0,1,56,49.2Z"/><path class="cls-1" d="M60.13,26a1.36,1.36,0,0,0-1.36,1.36V36.9a1.37,1.37,0,0,0,1.36,1.37H69.7a1.38,1.38,0,0,0,1.37-1.37A10.94,10.94,0,0,0,60.13,26Zm1.37,9.56V28.81a8.23,8.23,0,0,1,6.72,6.72Z"/><path class="cls-1" d="M16.4,42.37a4.1,4.1,0,1,0,4.1,4.1A4.1,4.1,0,0,0,16.4,42.37Zm0,5.46a1.37,1.37,0,1,1,1.37-1.36A1.37,1.37,0,0,1,16.4,47.83Z"/><path class="cls-1" d="M47.83,16.4h2.74v2.73H47.83Z"/><path class="cls-1" d="M53.3,16.4H69.7v2.73H53.3Z"/><path class="cls-1" d="M47.83,21.87H53.3V24.6H47.83Z"/><path class="cls-1" d="M23.23,45.1h20.5v2.73H23.23Z"/></g></g></svg>