<svg xmlns="http://www.w3.org/2000/svg" viewBox="0 0 96.27 83.86"><defs><style>.cls-1{fill:#522d6d;}</style></defs><title>Asset 7</title><g id="Layer_2" data-name="Layer 2"><g id="Layer_1-2" data-name="Layer 1"><path class="cls-1" d="M6.21,77.65h9.32V68.33H6.21Zm3.11-6.22h3.1v3.11H9.32Z"/><path class="cls-1" d="M18.64,77.65H28V68.33H18.64Zm3.1-6.22h3.11v3.11H21.74Z"/><path class="cls-1" d="M31.06,77.65h9.32V68.33H31.06Zm3.1-6.22h3.11v3.11H34.16Z"/><path class="cls-1" d="M6.21,65.22h9.32V55.91H6.21ZM9.32,59h3.1v3.11H9.32Z"/><path class="cls-1" d="M18.64,65.22H28V55.91H18.64ZM21.74,59h3.11v3.11H21.74Z"/><path class="cls-1" d="M31.06,65.22h9.32V55.91H31.06ZM34.16,59h3.11v3.11H34.16Z"/><path class="cls-1" d="M6.21,52.8h9.32V43.48H6.21Zm3.11-6.21h3.1v3.1H9.32Z"/><path class="cls-1" d="M18.64,52.8H28V43.48H18.64Zm3.1-6.21h3.11v3.1H21.74Z"/><path class="cls-1" d="M31.06,52.8h9.32V43.48H31.06Zm3.1-6.21h3.11v3.1H34.16Z"/><path class="cls-1" d="M23.29,21.74a1.56,1.56,0,0,1-1.55-1.55h-3.1a4.65,4.65,0,0,0,3.1,4.37V28h3.11v-3.1H28V20.19a4.66,4.66,0,0,0-4.66-4.66A1.56,1.56,0,0,1,21.74,14V12.42h1.55A1.56,1.56,0,0,1,24.85,14H28a4.66,4.66,0,0,0-3.1-4.38V6.21H21.74V9.32h-3.1V14a4.67,4.67,0,0,0,4.65,4.66,1.55,1.55,0,0,1,1.56,1.55v1.55Z"/><circle class="cls-1" cx="13.98" cy="17.08" r="1.55"/><circle class="cls-1" cx="32.61" cy="17.08" r="1.55"/><path class="cls-1" d="M95,58.73l-4.2-4.08a4.09,4.09,0,0,0-.45-.56c-1.3-1.3-3.36-1.6-5.91-.92a31.56,31.56,0,0,0-6.79-9.68c-5.77-5.77-13.81-10-17.33-6.48a4.09,4.09,0,0,0-.45.56l-4.21,4.1c-2.93,2.93-.48,9,3.75,14.26-4.87.15-9.75,1.22-12.8,3.14V23.29a7.77,7.77,0,0,0-6.29-7.61,17.07,17.07,0,0,0-34,0A7.77,7.77,0,0,0,0,23.29v52.8a7.78,7.78,0,0,0,7.76,7.77H38.82a7.74,7.74,0,0,0,6.72-3.94c3.08,2.57,9.17,3.94,15,3.94A33.68,33.68,0,0,0,71,82.34l.21.23a4.65,4.65,0,0,0,3.42,1.28c4,0,9.6-3.45,13.91-7.77,5.78-5.77,10-13.81,6.48-17.35Zm-3.07,7.69L89.52,64a17.41,17.41,0,0,0,1.84-4.48l1.43,1.39c.73.73.48,2.79-.88,5.48Zm-9.2,6.07L85.19,75a32.55,32.55,0,0,1-3.59,2.88l-2.45-2.46A34.6,34.6,0,0,0,82.71,72.49Zm2.21-2.19a36,36,0,0,0,2.9-3.58l2.45,2.45a33,33,0,0,1-2.89,3.59Zm3.22-14c1.31,1.31-.56,7-6.49,12.94S70,77,68.71,75.71c-1-1-.16-4.83,3.66-9.72a10.74,10.74,0,0,0,3.65.76,4.75,4.75,0,0,0,3.48-1.3l3.67-3.93a4.52,4.52,0,0,0,1-.69,5.23,5.23,0,0,0,1.17-4.69c1.34-.35,2.39-.31,2.85.15ZM65.23,74.21c-1,.13-2.05.22-3.11.27V71.39c1.27,0,2.52-.16,3.73-.33A10.81,10.81,0,0,0,65.23,74.21ZM46.59,68.26a15.64,15.64,0,0,0,3.1,1.47v2.91c-2-.87-3.1-1.9-3.1-2.76Zm6.21,2.36A35.5,35.5,0,0,0,59,71.4v3.11a31.15,31.15,0,0,1-6.21-.85Zm6.21,7v3.1a32,32,0,0,1-6.21-.84v-3A36.47,36.47,0,0,0,59,77.62Zm6.7-24.4-2.46,2.46a31.65,31.65,0,0,1-2.88-3.59l2.44-2.45a36,36,0,0,0,2.9,3.58Zm2.21,2.19a38.46,38.46,0,0,0,3.56,2.89L69,60.76a34,34,0,0,1-3.59-2.88Zm3.86,7L74.16,60a17.67,17.67,0,0,0,4.48,1.82l-1.37,1.47c-.73.72-2.79.47-5.49-.89ZM62.5,39.2a1.79,1.79,0,0,1,1.29-.4c2.32,0,6.91,2.15,11.65,6.89,5.93,5.93,7.8,11.63,6.48,12.94s-7-.56-12.94-6.49S61.18,40.52,62.5,39.2Zm-4.68,4.68,1.45-1.42A17.83,17.83,0,0,0,61.11,47l-2.39,2.39C57.36,46.65,57.11,44.59,57.82,43.88ZM60.56,59c.56,0,1.09,0,1.63.05a34.88,34.88,0,0,0,7.28,5.58,29.64,29.64,0,0,0-2,3,34.34,34.34,0,0,1-6.9.69c-8.53,0-14-2.76-14-4.66S52,59,60.56,59ZM9.32,26.87a17,17,0,0,0,28,0v10.4H9.32Zm14-23.76a14,14,0,1,1-14,14A14,14,0,0,1,23.29,3.11ZM38.82,80.75H7.76a4.66,4.66,0,0,1-4.65-4.66V23.29a4.65,4.65,0,0,1,3.1-4.37V40.38H40.38V18.92a4.65,4.65,0,0,1,3.1,4.37v52.8A4.66,4.66,0,0,1,38.82,80.75Zm7.77-4.66V74.48a16.21,16.21,0,0,0,3.1,1.46v2.91C47.7,78,46.59,77,46.59,76.09Zm15.53,4.6V77.58A36.92,36.92,0,0,0,66,77.24a4.88,4.88,0,0,0,.53.67,4.52,4.52,0,0,0,.95.69l1.14,1.21a31,31,0,0,1-6.48.88Zm11.29-.28L72,78.9a17.25,17.25,0,0,0,4.47-1.82l2.39,2.41c-2.7,1.36-4.75,1.62-5.45.92Z"/></g></g></svg>