<svg xmlns="http://www.w3.org/2000/svg" viewBox="0 0 81.34 82.49"><defs><style>.cls-1{fill:#522d6d;}</style></defs><title>Asset 5</title><g id="Layer_2" data-name="Layer 2"><g id="Layer_1-2" data-name="Layer 1"><rect class="cls-1" x="11.8" y="24.75" width="8.25" height="2.75"/><rect class="cls-1" x="29.67" y="24.75" width="8.25" height="2.75"/><rect class="cls-1" x="47.54" y="24.75" width="6.87" height="2.75"/><rect class="cls-1" x="62.67" y="24.75" width="8.25" height="2.75"/><rect class="cls-1" x="11.8" y="31.62" width="8.25" height="2.75"/><rect class="cls-1" x="29.67" y="31.62" width="8.25" height="2.75"/><rect class="cls-1" x="47.54" y="31.62" width="6.87" height="2.75"/><rect class="cls-1" x="62.67" y="31.62" width="8.25" height="2.75"/><path class="cls-1" d="M39.92,53.14a1.38,1.38,0,0,1,1.29-.89,1.37,1.37,0,0,1,1.37,1.37h2.75a4.11,4.11,0,0,0-2.75-3.87V48.12H39.83v1.63a4.13,4.13,0,0,0-2.75,3.87,1.35,1.35,0,0,0,.41,1l5,5a1.38,1.38,0,0,1-2.67-.48H37.08A4.13,4.13,0,0,0,39.83,63v1.63h2.75V63a4.11,4.11,0,0,0,2.75-3.87,1.37,1.37,0,0,0-.4-1Z"/><rect class="cls-1" x="56.33" y="52.25" width="13.75" height="2.75"/><rect class="cls-1" x="57.7" y="60.5" width="15.12" height="2.75"/><rect class="cls-1" x="12.34" y="52.25" width="13.75" height="2.75"/><rect class="cls-1" x="9.59" y="60.5" width="15.12" height="2.75"/><rect class="cls-1" x="68.17" y="5.5" width="2.75" height="5.5"/><rect class="cls-1" x="62.67" y="5.5" width="2.75" height="5.5"/><rect class="cls-1" x="57.17" y="5.5" width="2.75" height="5.5"/><rect class="cls-1" x="51.67" y="5.5" width="2.75" height="5.5"/><rect class="cls-1" x="11.8" y="5.5" width="5.5" height="2.75"/><rect class="cls-1" x="11.8" y="11" width="12.37" height="2.75"/><path class="cls-1" d="M81.31,74.93l-.22-2.2a.29.29,0,0,1,0-.1L77.79,42.55V6.87A6.88,6.88,0,0,0,70.92,0H10.42A6.88,6.88,0,0,0,3.55,6.87V42.55L.28,72.63a.29.29,0,0,1,0,.1L0,74.93a6.88,6.88,0,0,0,6.84,7.56H74.46a6.88,6.88,0,0,0,6.85-7.56ZM6.3,6.87a4.13,4.13,0,0,1,4.12-4.12h60.5A4.13,4.13,0,0,1,75,6.87V16.5H6.3Zm0,12.38H75v22H6.3ZM6.16,44h69l3,27.49h-75ZM77.52,78.39a4.09,4.09,0,0,1-3.06,1.35H6.87a4.12,4.12,0,0,1-4.1-4.53h0l.1-1H78.46l.11,1A4.09,4.09,0,0,1,77.52,78.39Z"/></g></g></svg>