<svg xmlns="http://www.w3.org/2000/svg" viewBox="0 0 56.9 84"><defs><style>.cls-1{fill:#522d6d;}</style></defs><title>Asset 2</title><g id="Layer_2" data-name="Layer 2"><g id="Layer_1-2" data-name="Layer 1"><path class="cls-1" d="M56.51,14,43,.4A1.35,1.35,0,0,0,42,0H1.35A1.36,1.36,0,0,0,0,1.35v65a1.36,1.36,0,0,0,1.35,1.35H14.9V69.1a1.24,1.24,0,0,0,.15.6l2.56,5.14v6.45H14.9V84H39.29V81.29H36.58V74.93l4.79-7.19H55.55a1.35,1.35,0,0,0,1.35-1.35V14.9A1.34,1.34,0,0,0,56.51,14ZM43.35,4.63l8.93,8.92H43.35ZM34.1,73.76a1.38,1.38,0,0,0-.23.76v6.77H20.32V74.52a1.43,1.43,0,0,0-.14-.61l-2.57-5.13v-1h6A6.65,6.65,0,0,0,23,70.45v2.71h2.71V70.45a4.07,4.07,0,0,1,4.07-4.06A1.35,1.35,0,0,0,31.16,65V58.26h1.36a1.36,1.36,0,0,1,1.35,1.35v6.78a1.36,1.36,0,0,0,1.36,1.35h2.88ZM36.58,65V59.61a4.06,4.06,0,0,0-4.06-4.06H29.81a1.36,1.36,0,0,0-1.36,1.35v6.91A6.78,6.78,0,0,0,25.75,65h-23V2.71H40.65V14.9A1.35,1.35,0,0,0,42,16.26H54.19V65Z"/><path class="cls-1" d="M10.84,24.39a2.71,2.71,0,0,1-2.71-2.71H5.42A5.4,5.4,0,0,0,9.48,26.9v2.91h2.71V26.9a5.4,5.4,0,0,0-1.35-10.64,2.71,2.71,0,1,1,2.71-2.71h2.71a5.41,5.41,0,0,0-4.07-5.23V5.42H9.48v2.9A5.41,5.41,0,0,0,10.84,19a2.71,2.71,0,0,1,0,5.42Z"/><path class="cls-1" d="M47,53.24l-1.91,1.91,1.75,1.75H39.29v2.71h7.57l-1.75,1.75L47,63.28l4.07-4.06a1.36,1.36,0,0,0,0-1.92Z"/><path class="cls-1" d="M24.39,37.94H21.68v19H19V43.35H16.26V56.9H10.84V38.5l1.75,1.75,1.92-1.92-4.07-4.06a1.35,1.35,0,0,0-1.91,0L4.46,38.33l1.92,1.92L8.13,38.5V58.26a1.34,1.34,0,0,0,1.35,1.35H25.74V56.9H24.39Z"/><path class="cls-1" d="M27.1,32.52h2.71V52.84H27.1Z"/><path class="cls-1" d="M32.52,27.1h2.71V52.84H32.52Z"/></g></g></svg>