<svg xmlns="http://www.w3.org/2000/svg" viewBox="0 0 78.39 84.03"><defs><style>.cls-1{fill:#522d6d;}</style></defs><title>Asset 1</title><g id="Layer_2" data-name="Layer 2"><g id="Layer_1-2" data-name="Layer 1"><path class="cls-1" d="M77.16,44.73A1.24,1.24,0,0,0,75.92,46V79.29a2.26,2.26,0,0,1-2.27,2.27h-29a2.26,2.26,0,0,1-2.27-2.27V76a1.24,1.24,0,1,0-2.47,0v3.27a4.67,4.67,0,0,0,.58,2.27H2.88a.41.41,0,0,1-.41-.41V51.4a1.25,1.25,0,0,0-1.24-1.24A1.24,1.24,0,0,0,0,51.4V81.15A2.88,2.88,0,0,0,2.88,84H73.65a4.74,4.74,0,0,0,4.74-4.74V46a1.23,1.23,0,0,0-1.23-1.23Z"/><path class="cls-1" d="M73.65,26.49H61.73v-10a1.25,1.25,0,0,0-.36-.88L46.09.36A1.25,1.25,0,0,0,45.21,0H2.88A2.88,2.88,0,0,0,0,2.88V46.46a1.24,1.24,0,1,0,2.47,0V2.88a.41.41,0,0,1,.41-.41H44V13.23a4.53,4.53,0,0,0,4.52,4.52H59.26v8.74H44.61a4.74,4.74,0,0,0-4.74,4.74v.19H20.33a1.23,1.23,0,1,0,0,2.46H39.87v8.38H20.33a1.24,1.24,0,1,0,0,2.47H39.87v8.38H20.33a1.23,1.23,0,1,0,0,2.46H39.87V64H20.33a1.24,1.24,0,1,0,0,2.47H39.87v4.66a1.24,1.24,0,1,0,2.47,0V31.23A2.28,2.28,0,0,1,44.61,29h29a2.27,2.27,0,0,1,2.27,2.28V41a1.24,1.24,0,0,0,2.47,0v-9.8a4.74,4.74,0,0,0-4.74-4.74ZM46.45,13.23v-9L57.52,15.28h-9a2.05,2.05,0,0,1-2-2Z"/><path class="cls-1" d="M72.35,35.05a2.88,2.88,0,0,0-2.87-2.88H49a2.88,2.88,0,0,0-2.88,2.88v7A2.88,2.88,0,0,0,49,44.89H69.48A2.88,2.88,0,0,0,72.35,42Zm-2.46,7a.42.42,0,0,1-.41.42H49a.41.41,0,0,1-.41-.42v-7a.41.41,0,0,1,.41-.41H69.48a.41.41,0,0,1,.41.41Z"/><path class="cls-1" d="M46.12,55a2.75,2.75,0,0,0,2.75,2.75h2.35A2.76,2.76,0,0,0,54,55V52.67a2.76,2.76,0,0,0-2.76-2.75H48.87a2.75,2.75,0,0,0-2.75,2.75Zm2.47-2.35a.28.28,0,0,1,.28-.28h2.35a.28.28,0,0,1,.29.28V55a.29.29,0,0,1-.29.29H48.87a.29.29,0,0,1-.28-.29Z"/><path class="cls-1" d="M63.17,52.67a2.76,2.76,0,0,0-2.76-2.75H58.06a2.75,2.75,0,0,0-2.75,2.75V55a2.76,2.76,0,0,0,2.75,2.76h2.35A2.77,2.77,0,0,0,63.17,55ZM60.7,55a.29.29,0,0,1-.29.29H58.06a.29.29,0,0,1-.28-.29V52.67a.28.28,0,0,1,.28-.28h2.35a.28.28,0,0,1,.29.28V55Z"/><path class="cls-1" d="M72.35,52.67a2.75,2.75,0,0,0-2.75-2.75H67.25a2.75,2.75,0,0,0-2.75,2.75V55a2.76,2.76,0,0,0,2.75,2.76H69.6A2.76,2.76,0,0,0,72.35,55ZM69.89,55a.29.29,0,0,1-.29.29H67.25A.28.28,0,0,1,67,55V52.67a.27.27,0,0,1,.28-.28H69.6a.28.28,0,0,1,.29.28Z"/><path class="cls-1" d="M46.12,65.08a2.75,2.75,0,0,0,2.75,2.75h2.35A2.76,2.76,0,0,0,54,65.08V62.73A2.76,2.76,0,0,0,51.22,60H48.87a2.75,2.75,0,0,0-2.75,2.75Zm2.47-2.35a.29.29,0,0,1,.28-.29h2.35a.29.29,0,0,1,.29.29v2.35a.28.28,0,0,1-.29.28H48.87a.28.28,0,0,1-.28-.28Z"/><path class="cls-1" d="M63.17,62.73A2.76,2.76,0,0,0,60.41,60H58.06a2.75,2.75,0,0,0-2.75,2.75v2.35a2.75,2.75,0,0,0,2.75,2.75h2.35a2.76,2.76,0,0,0,2.76-2.75ZM60.7,65.08a.28.28,0,0,1-.29.28H58.06a.28.28,0,0,1-.28-.28V62.73a.29.29,0,0,1,.28-.29h2.35a.29.29,0,0,1,.29.29v2.35Z"/><path class="cls-1" d="M46.12,75.13a2.76,2.76,0,0,0,2.75,2.76h2.35A2.77,2.77,0,0,0,54,75.13V72.78A2.76,2.76,0,0,0,51.22,70H48.87a2.76,2.76,0,0,0-2.75,2.75Zm2.47-2.35a.29.29,0,0,1,.28-.28h2.35a.29.29,0,0,1,.29.28v2.35a.29.29,0,0,1-.29.29H48.87a.29.29,0,0,1-.28-.29Z"/><path class="cls-1" d="M60.41,70H58.06a2.76,2.76,0,0,0-2.75,2.75v2.35a2.76,2.76,0,0,0,2.75,2.76h2.35a2.77,2.77,0,0,0,2.76-2.76V72.78A2.76,2.76,0,0,0,60.41,70Zm.29,5.1a.29.29,0,0,1-.29.29H58.06a.29.29,0,0,1-.28-.29V72.78a.29.29,0,0,1,.28-.28h2.35a.29.29,0,0,1,.29.28v2.35Z"/><path class="cls-1" d="M69.37,60H67.49a3,3,0,0,0-3,3V74.9a3,3,0,0,0,3,3h1.88a3,3,0,0,0,3-3V63A3,3,0,0,0,69.37,60Zm.52,14.92a.52.52,0,0,1-.52.52H67.49A.52.52,0,0,1,67,74.9V63a.52.52,0,0,1,.52-.52h1.88a.53.53,0,0,1,.52.52Z"/><path class="cls-1" d="M9.85,23h4.92a1.24,1.24,0,1,0,0-2.47H9.85a1.24,1.24,0,0,0,0,2.47Z"/><path class="cls-1" d="M20.33,23H44.06a1.24,1.24,0,1,0,0-2.47H20.33a1.24,1.24,0,1,0,0,2.47Z"/><path class="cls-1" d="M9.85,33.88h4.92a1.23,1.23,0,1,0,0-2.46H9.85a1.23,1.23,0,1,0,0,2.46Z"/><path class="cls-1" d="M9.85,44.73h4.92a1.24,1.24,0,1,0,0-2.47H9.85a1.24,1.24,0,0,0,0,2.47Z"/><path class="cls-1" d="M9.85,55.57h4.92a1.23,1.23,0,1,0,0-2.46H9.85a1.23,1.23,0,1,0,0,2.46Z"/><path class="cls-1" d="M9.85,66.42h4.92a1.24,1.24,0,1,0,0-2.47H9.85a1.24,1.24,0,0,0,0,2.47Z"/></g></g></svg>