<svg xmlns="http://www.w3.org/2000/svg" viewBox="0 0 85.22 85.22"><defs><style>.cls-1{fill:#522d6d;}</style></defs><title>Asset 6</title><g id="Layer_2" data-name="Layer 2"><g id="Layer_1-2" data-name="Layer 1"><path class="cls-1" d="M51.93,66.58H49.27V63.91h2.66Zm-5.33,0H43.94V63.91H46.6Zm-5.32,0H38.61V63.91h2.67Zm-5.33,0H33.29V63.91H36Z"/><path class="cls-1" d="M69.24,61.25H66.58V58.59h2.66Zm-5.33,0H41.28V58.59H63.91Zm-25.3,0H16V58.59H38.61Z"/><path class="cls-1" d="M79.89,74.57V36a4,4,0,0,0-4-4H66.58V18.64H77.23v-12A6.66,6.66,0,0,0,70.57,0H25.3a6.66,6.66,0,0,0-6.66,6.66V32H9.32a4,4,0,0,0-4,4V74.57H0v4a6.66,6.66,0,0,0,6.66,6.66h71.9a6.67,6.67,0,0,0,6.66-6.66v-4ZM66.58,6.66a4,4,0,1,1,8,0V16h-8Zm-45.28,0a4,4,0,0,1,4-4h40a6.65,6.65,0,0,0-1.37,4v46.6H21.3ZM69.24,55.92V53.26H66.58V40H71.9V69.24H13.32V40h5.32V53.26H16v2.66ZM8,36a1.34,1.34,0,0,1,1.33-1.33h9.32v2.66h-8V71.9H74.57V37.28h-8V34.62H75.9A1.34,1.34,0,0,1,77.23,36V74.57H47.93V75.9a1.33,1.33,0,0,1-1.33,1.33h-8a1.34,1.34,0,0,1-1.33-1.33V74.57H8ZM82.55,78.56a4,4,0,0,1-4,4H6.66a4,4,0,0,1-4-4V77.23H34.85a4,4,0,0,0,3.76,2.66h8a4,4,0,0,0,3.77-2.66H82.55Z"/><path class="cls-1" d="M24,16H61.25V8H24Zm2.66-5.33h32v2.67h-32Z"/><path class="cls-1" d="M24,50.6H61.25V24H24Zm21.3-24H58.59V32H45.27Zm0,8H58.59V47.93H45.27Zm-9.32-8h6.66V32H36Zm0,8h6.66V47.93H36Zm-9.32-8h6.66V32H26.63Zm0,8h6.66V47.93H26.63Z"/><path class="cls-1" d="M24,18.64H42.61V21.3H24Z"/></g></g></svg>