<svg xmlns="http://www.w3.org/2000/svg" viewBox="0 0 149 108.15"><defs><style>.cls-1{fill:#522d6d;}</style></defs><title>Asset 1</title><g id="Layer_2" data-name="Layer 2"><g id="Layer_1-2" data-name="Layer 1"><path class="cls-1" d="M93.6,32.92a4.73,4.73,0,0,0-3.72,1.71,6,6,0,0,0,0,7.64A4.69,4.69,0,0,0,93.6,44a4.64,4.64,0,0,0,3.69-1.71,5.75,5.75,0,0,0,1.35-3.83,5.82,5.82,0,0,0-1.4-3.85A4.55,4.55,0,0,0,93.6,32.92Z"/><path class="cls-1" d="M67.89,61.62c-6.09-6.07-9.18-13.83-9.18-23.09s3.09-17,9.17-23.13S82,6.17,91.69,6.17a32.54,32.54,0,0,1,15.58,3.76V0H42.86V65.53H72.67A31.07,31.07,0,0,1,67.89,61.62Z"/><path class="cls-1" d="M106.67,53.92l.6-.62V43.36A12.72,12.72,0,0,1,104,48.59a14.4,14.4,0,0,1-10.49,3.9,14.48,14.48,0,0,1-10.36-3.85,13,13,0,0,1-4.07-9.88A14.17,14.17,0,0,1,83,28.42q3.9-4,10.54-4A14.41,14.41,0,0,1,104,28.34a12.58,12.58,0,0,1,3.25,5.2V23.48l-.6-.6a20.1,20.1,0,0,0-15-6.19c-6.61,0-11.74,2-15.65,6.08s-5.65,9.14-5.65,15.67S72.24,50.1,76,54.11s9,6.08,15.66,6.08A20,20,0,0,0,106.67,53.92Z"/><path class="cls-1" d="M23.74,77.49a8,8,0,0,0-2.52-1.58,8.66,8.66,0,0,0-6.16,0,7.86,7.86,0,0,0-2.52,1.58,7.35,7.35,0,0,0-1.7,2.38,7.32,7.32,0,0,0,0,5.92,7.45,7.45,0,0,0,1.71,2.36,7.54,7.54,0,0,0,2.51,1.58,8.16,8.16,0,0,0,3.09.58,8,8,0,0,0,3.06-.58,7.59,7.59,0,0,0,2.52-1.58,7.46,7.46,0,0,0,1.7-2.37,7.14,7.14,0,0,0,0-5.91A7.74,7.74,0,0,0,23.74,77.49Zm-.47,7.41a5.46,5.46,0,0,1-3,2.85,5.91,5.91,0,0,1-4.34,0,5.6,5.6,0,0,1-1.75-1.15A6,6,0,0,1,13,84.91a5.16,5.16,0,0,1-.43-2.08A5.23,5.23,0,0,1,13,80.75,5.56,5.56,0,0,1,14.21,79,5.34,5.34,0,0,1,16,77.9a5.73,5.73,0,0,1,2.19-.42,5.53,5.53,0,0,1,2.15.42,5.6,5.6,0,0,1,1.77,1.16,5.49,5.49,0,0,1,1.19,1.7,5.2,5.2,0,0,1,0,4.14Z"/><path class="cls-1" d="M36.67,87.86a6.31,6.31,0,0,1-4.33-.15,5.1,5.1,0,0,1-1.68-1.19,5.22,5.22,0,0,1-1-1.7,6,6,0,0,1-.33-2,5.82,5.82,0,0,1,.35-2,4.8,4.8,0,0,1,1-1.7A5,5,0,0,1,32.36,78a6.2,6.2,0,0,1,4.27-.14,9.82,9.82,0,0,1,1.83.8l.77.43L39,76.43l-.22-.12a8,8,0,0,0-1.92-.72,8.45,8.45,0,0,0-5.11.32,7.92,7.92,0,0,0-2.51,1.58,7.53,7.53,0,0,0-1.71,2.38,7,7,0,0,0-.62,3,7.57,7.57,0,0,0,.59,3,7.24,7.24,0,0,0,1.66,2.37,7.68,7.68,0,0,0,2.51,1.54,8.73,8.73,0,0,0,3.15.55A8,8,0,0,0,36.93,90a9,9,0,0,0,1.93-.76l.22-.11.22-2.64-.79.48A8.31,8.31,0,0,1,36.67,87.86Z"/><path class="cls-1" d="M49.65,85.07h5.7l2.57,5.18,2.31-.3L53.06,75.38h-1L44.7,90l2.4.29Zm2.83-5.69,1.8,3.6H50.69Z"/><path class="cls-1" d="M68.81,88A4.08,4.08,0,0,0,69.32,86a3.61,3.61,0,0,0-.6-2.16,4.37,4.37,0,0,0-1.4-1.27,9.22,9.22,0,0,0-1.75-.75,12.85,12.85,0,0,1-1.6-.58,3.94,3.94,0,0,1-1.14-.74,1.37,1.37,0,0,1-.37-1,1.74,1.74,0,0,1,.19-.84,1.65,1.65,0,0,1,.5-.58,2.07,2.07,0,0,1,.76-.37,3.52,3.52,0,0,1,2.39.18,6,6,0,0,1,1.31.83l.51.43L68.9,77l-.2-.21a4.48,4.48,0,0,0-1.59-1,5.74,5.74,0,0,0-1.83-.42,6.18,6.18,0,0,0-1.86.17,5,5,0,0,0-1.66.74,3.86,3.86,0,0,0-1.68,3.23,3.51,3.51,0,0,0,.6,2.13,4.48,4.48,0,0,0,1.42,1.24,8.86,8.86,0,0,0,1.74.72,11.89,11.89,0,0,1,1.6.59,3.73,3.73,0,0,1,1.14.76A1.52,1.52,0,0,1,67,86.05a1.82,1.82,0,0,1-.19.86,2.16,2.16,0,0,1-.52.68,2.14,2.14,0,0,1-.77.43,3.17,3.17,0,0,1-2.63-.31,6.76,6.76,0,0,1-1.45-1.14l-.47-.49-1,2,.18.22a5,5,0,0,0,1.61,1.32,6,6,0,0,0,2,.62,5.87,5.87,0,0,0,.83.05,6.53,6.53,0,0,0,1.17-.11,4.9,4.9,0,0,0,1.81-.73A3.85,3.85,0,0,0,68.81,88Z"/><polygon class="cls-1" points="79.74 87.94 72.86 87.94 72.86 83.8 78.88 83.8 78.88 81.69 72.86 81.69 72.86 77.7 79.5 77.7 79.25 75.59 70.58 75.59 70.58 90.05 79.53 90.05 79.74 87.94"/><path class="cls-1" d="M89.63,83.79a4.4,4.4,0,0,0-1.41-1.27,8.7,8.7,0,0,0-1.75-.75,16.15,16.15,0,0,1-1.6-.58,3.88,3.88,0,0,1-1.13-.74,1.37,1.37,0,0,1-.37-1,1.71,1.71,0,0,1,.18-.84,1.66,1.66,0,0,1,.5-.58,2.29,2.29,0,0,1,.77-.37,3.52,3.52,0,0,1,2.39.18,6.48,6.48,0,0,1,1.31.83l.51.43L89.81,77l-.2-.21a4.57,4.57,0,0,0-1.59-1,5.8,5.8,0,0,0-1.83-.42,6.22,6.22,0,0,0-1.87.17,5,5,0,0,0-1.66.74,3.9,3.9,0,0,0-1.21,1.34A3.78,3.78,0,0,0,81,79.48a3.6,3.6,0,0,0,.59,2.13A4.63,4.63,0,0,0,83,82.85a8.61,8.61,0,0,0,1.74.72,11.89,11.89,0,0,1,1.6.59,3.56,3.56,0,0,1,1.13.76,1.52,1.52,0,0,1,.39,1.13,1.82,1.82,0,0,1-.19.86,2.32,2.32,0,0,1-.53.68,2.23,2.23,0,0,1-.77.43,3.15,3.15,0,0,1-2.62-.31,6.59,6.59,0,0,1-1.45-1.14l-.48-.49-1,2,.17.22a4.94,4.94,0,0,0,1.62,1.32,5.78,5.78,0,0,0,2.78.67,6.62,6.62,0,0,0,1.17-.11,4.9,4.9,0,0,0,1.81-.73A4,4,0,0,0,89.72,88a4.11,4.11,0,0,0,.5-2.08A3.63,3.63,0,0,0,89.63,83.79Z"/><path class="cls-1" d="M93.57,88.15a7.59,7.59,0,0,0,2.52,1.58,8.44,8.44,0,0,0,6.15,0,7.71,7.71,0,0,0,2.51-1.58,7.21,7.21,0,0,0,1.7-2.37,7.14,7.14,0,0,0,0-5.91,7.35,7.35,0,0,0-1.7-2.38,7.8,7.8,0,0,0-2.53-1.58,8.63,8.63,0,0,0-6.15,0,7.86,7.86,0,0,0-2.52,1.58,7.48,7.48,0,0,0-1.69,2.38,7.21,7.21,0,0,0-.63,3,7,7,0,0,0,.64,3A7.58,7.58,0,0,0,93.57,88.15Zm.48-7.4A5.71,5.71,0,0,1,95.22,79,5.28,5.28,0,0,1,97,77.9a5.64,5.64,0,0,1,2.18-.42,5.55,5.55,0,0,1,3.92,1.58,5.66,5.66,0,0,1,1.19,1.7,5.2,5.2,0,0,1,0,4.14,5.42,5.42,0,0,1-1.19,1.7A5.73,5.73,0,0,1,97,87.76a5.38,5.38,0,0,1-1.75-1.15,5.46,5.46,0,0,1-1.18-1.7,5.25,5.25,0,0,1,0-4.16Z"/><path class="cls-1" d="M115.93,86c-.63-.83-1.3-1.64-2-2.41a3.82,3.82,0,0,0,1.23-.79,4.31,4.31,0,0,0,1.08-1.63,4.17,4.17,0,0,0,.22-1.92,3.93,3.93,0,0,0-.71-1.83,4.46,4.46,0,0,0-1.68-1.34,6,6,0,0,0-2.6-.52h-3.64V90.16l2.28-.23v-6h.76a1,1,0,0,1,.59.27,7,7,0,0,1,1,.9,15.33,15.33,0,0,1,1,1.27q.52.7,1,1.38c.31.45.59.87.83,1.25l.75,1.18,2.45-.57-.35-.52C117.43,88.06,116.7,87,115.93,86Zm-2.55-4.49a2.2,2.2,0,0,1-.8.38,4.18,4.18,0,0,1-1,.12h-1.43V77.7h1.36a2.91,2.91,0,0,1,1.92.58,2,2,0,0,1,.69,1.7,2.14,2.14,0,0,1-.18.93A1.78,1.78,0,0,1,113.38,81.54Z"/><polygon class="cls-1" points="121.4 83.8 127.43 83.8 127.43 81.69 121.4 81.69 121.4 77.7 128.05 77.7 127.8 75.59 119.13 75.59 119.13 90.05 128.07 90.05 128.29 87.94 121.4 87.94 121.4 83.8"/><path class="cls-1" d="M135.71,87.59a2.18,2.18,0,0,1-.78.43,3.19,3.19,0,0,1-2.62-.31,6.52,6.52,0,0,1-1.46-1.14l-.46-.49-1,2,.17.22a5.17,5.17,0,0,0,1.62,1.32,5.78,5.78,0,0,0,2.78.67,6.53,6.53,0,0,0,1.17-.11,5,5,0,0,0,1.81-.73A4,4,0,0,0,138.27,88a4.08,4.08,0,0,0,.51-2.08,3.58,3.58,0,0,0-.6-2.15,4.32,4.32,0,0,0-1.41-1.28,8.86,8.86,0,0,0-1.74-.75,13,13,0,0,1-1.61-.58,3.88,3.88,0,0,1-1.13-.74,1.37,1.37,0,0,1-.37-1,1.89,1.89,0,0,1,.18-.84,1.66,1.66,0,0,1,.5-.58,2.29,2.29,0,0,1,.77-.37,3.59,3.59,0,0,1,2.39.18,6,6,0,0,1,1.31.83l.5.43.79-2.06-.2-.21a4.57,4.57,0,0,0-1.59-1,5.8,5.8,0,0,0-1.83-.42,6.25,6.25,0,0,0-1.87.17,5.08,5.08,0,0,0-1.66.74,3.88,3.88,0,0,0-1.2,1.34,3.76,3.76,0,0,0-.47,1.89,3.44,3.44,0,0,0,.6,2.12,4.29,4.29,0,0,0,1.42,1.25,8.61,8.61,0,0,0,1.74.72,11.89,11.89,0,0,1,1.6.59,3.56,3.56,0,0,1,1.13.76,1.48,1.48,0,0,1,.38,1.13,1.84,1.84,0,0,1-.18.86A2.28,2.28,0,0,1,135.71,87.59Z"/><path class="cls-1" d="M5.77,101.39a4.2,4.2,0,0,0-1.32-.89,4.71,4.71,0,0,0-1.83-.33H0V108H2.6a4.59,4.59,0,0,0,1.83-.35,3.93,3.93,0,0,0,1.33-.89,3.53,3.53,0,0,0,.79-1.26,4.17,4.17,0,0,0,.27-1.43,4,4,0,0,0-.26-1.44A3.94,3.94,0,0,0,5.77,101.39Zm-.5,3.87a2.72,2.72,0,0,1-.64.86,2.66,2.66,0,0,1-1,.54,3.78,3.78,0,0,1-1.23.2H1.25v-5.54H2.51a3.75,3.75,0,0,1,1.24.19,2.7,2.7,0,0,1,.93.55,2.23,2.23,0,0,1,.6.87,3,3,0,0,1,.22,1.17A2.82,2.82,0,0,1,5.27,105.26Z"/><polygon class="cls-1" points="8.89 104.63 12.16 104.63 12.16 103.47 8.89 103.47 8.89 101.32 12.5 101.32 12.36 100.17 7.65 100.17 7.65 108.02 12.51 108.02 12.62 106.85 8.89 106.85 8.89 104.63"/><path class="cls-1" d="M17.21,103.92a4.36,4.36,0,0,0-.94-.4c-.33-.11-.62-.21-.87-.32a2.08,2.08,0,0,1-.61-.4.75.75,0,0,1-.2-.56,1,1,0,0,1,.1-.46.81.81,0,0,1,.27-.31,1.42,1.42,0,0,1,.41-.2,1.92,1.92,0,0,1,1.29.1,3.54,3.54,0,0,1,.71.45l.29.24.42-1.14-.11-.11a2.65,2.65,0,0,0-.87-.56,3.31,3.31,0,0,0-1-.22,3.18,3.18,0,0,0-1,.09,3.05,3.05,0,0,0-.9.4,2.08,2.08,0,0,0-.65.73,2,2,0,0,0-.26,1,1.87,1.87,0,0,0,.33,1.15,2.29,2.29,0,0,0,.77.68,4.59,4.59,0,0,0,.95.39,7.28,7.28,0,0,1,.86.32,1.82,1.82,0,0,1,.61.41.84.84,0,0,1,.21.61,1,1,0,0,1-.1.46,1.12,1.12,0,0,1-.28.36,1,1,0,0,1-.42.23,1.63,1.63,0,0,1-1.41-.16,3.44,3.44,0,0,1-.79-.62l-.26-.27-.55,1.1.11.12a2.68,2.68,0,0,0,.88.72,3.13,3.13,0,0,0,1.05.33,3.42,3.42,0,0,0,.46,0,2.76,2.76,0,0,0,.63-.07,2.56,2.56,0,0,0,1-.39,2.31,2.31,0,0,0,.72-.77,2.34,2.34,0,0,0,.27-1.14,2,2,0,0,0-.32-1.17A2.3,2.3,0,0,0,17.21,103.92Z"/><path class="cls-1" d="M23.56,101.49a2,2,0,0,0-.61-.77,2.71,2.71,0,0,0-.92-.44,7.55,7.55,0,0,0-2-.11H18.91v7.92l1.26-.14V105.1c.31,0,.64-.06,1-.11a4.51,4.51,0,0,0,1.24-.4,2.84,2.84,0,0,0,1-.76,1.87,1.87,0,0,0,.42-1.25A2.44,2.44,0,0,0,23.56,101.49Zm-1.1,1.09a.83.83,0,0,1-.23.61,1.81,1.81,0,0,1-.64.43,4.31,4.31,0,0,1-.87.24l-.56.08v-2.62h.92a1.7,1.7,0,0,1,.57.09,1.34,1.34,0,0,1,.43.26,1.17,1.17,0,0,1,.29.39,1,1,0,0,1,.09.35Z"/><path class="cls-1" d="M27.69,100.05l-4,7.91,1.32.16,1.38-2.81h3.08l1.39,2.81,1.27-.17-3.89-7.9ZM27,104.17l1-1.93,1,1.93Z"/><path class="cls-1" d="M37.2,106.81a3.41,3.41,0,0,1-2.33-.08,2.47,2.47,0,0,1-.91-.65,2.84,2.84,0,0,1-.55-.91,3.58,3.58,0,0,1-.18-1.07,3.36,3.36,0,0,1,.19-1.08,2.64,2.64,0,0,1,.55-.91,2.48,2.48,0,0,1,.9-.65,3.42,3.42,0,0,1,2.31-.08,5.19,5.19,0,0,1,1,.43l.43.24-.11-1.43-.12-.06a4.3,4.3,0,0,0-1-.4,4.58,4.58,0,0,0-2.77.18,4.15,4.15,0,0,0-2.29,2.14,4,4,0,0,0-.34,1.61,4.14,4.14,0,0,0,.32,1.64,3.8,3.8,0,0,0,.9,1.28,3.94,3.94,0,0,0,1.36.84,4.8,4.8,0,0,0,1.71.3,4.41,4.41,0,0,0,1.14-.15,4.88,4.88,0,0,0,1-.41l.12-.07.12-1.45-.44.28A5,5,0,0,1,37.2,106.81Z"/><polygon class="cls-1" points="44.78 103.47 40.7 103.47 40.7 100.05 39.45 100.18 39.45 108.08 40.71 107.94 40.71 104.61 44.79 104.61 44.79 108.08 46.04 107.94 46.04 100.05 44.78 100.18 44.78 103.47"/><path class="cls-1" d="M54.29,101.19a4.21,4.21,0,0,0-1.38-.85,4.64,4.64,0,0,0-3.34,0,4.27,4.27,0,0,0-1.37.85,4.2,4.2,0,0,0-.92,1.3,3.89,3.89,0,0,0-.34,1.6,3.79,3.79,0,0,0,.35,1.61,4.17,4.17,0,0,0,.92,1.29,4.74,4.74,0,0,0,1.37.86,4.8,4.8,0,0,0,3.34,0,4.44,4.44,0,0,0,1.37-.87,4.11,4.11,0,0,0,.92-1.29,3.93,3.93,0,0,0,0-3.2A4.32,4.32,0,0,0,54.29,101.19Zm-.28,4a2.82,2.82,0,0,1-.64.92,3.23,3.23,0,0,1-1,.62,3.11,3.11,0,0,1-2.34,0,2.87,2.87,0,0,1-1-.61,3.15,3.15,0,0,1-.64-.93,2.73,2.73,0,0,1-.23-1.12,2.65,2.65,0,0,1,.24-1.12,2.8,2.8,0,0,1,1.58-1.54,3,3,0,0,1,1.19-.23,3,3,0,0,1,1.16.23,3.25,3.25,0,0,1,.95.62A3.15,3.15,0,0,1,54,103a2.61,2.61,0,0,1,.24,1.11A2.68,2.68,0,0,1,54,105.21Z"/><polygon class="cls-1" points="63.53 101.32 63.4 100.17 59.24 100.17 59.24 108.08 60.51 107.94 60.51 104.56 63.01 104.57 63.05 103.4 60.5 103.4 60.5 101.32 63.53 101.32"/><polygon class="cls-1" points="64.47 108.08 65.71 107.94 65.71 100.05 64.47 100.18 64.47 108.08"/><path class="cls-1" d="M70.64,103.92a4.16,4.16,0,0,0-1-.4c-.33-.11-.61-.21-.86-.32a2,2,0,0,1-.61-.4.71.71,0,0,1-.2-.56,1,1,0,0,1,.1-.46.79.79,0,0,1,.26-.31,1.56,1.56,0,0,1,.41-.2,1.91,1.91,0,0,1,1.29.1,2.86,2.86,0,0,1,.71.45l.29.24.42-1.14-.11-.11a2.56,2.56,0,0,0-.86-.56,3.38,3.38,0,0,0-1-.22,3.12,3.12,0,0,0-1,.09,3.05,3.05,0,0,0-.9.4,2.31,2.31,0,0,0-.66.73,2.12,2.12,0,0,0-.25,1,1.93,1.93,0,0,0,.32,1.15,2.43,2.43,0,0,0,.78.68,4.59,4.59,0,0,0,1,.39,7.28,7.28,0,0,1,.86.32,1.92,1.92,0,0,1,.61.41.83.83,0,0,1,.2.61,1,1,0,0,1-.1.46,1.09,1.09,0,0,1-.28.36.88.88,0,0,1-.41.23,1.68,1.68,0,0,1-1.42-.16,3.61,3.61,0,0,1-.78-.62l-.26-.27-.55,1.1.1.12a2.79,2.79,0,0,0,.88.72,3.28,3.28,0,0,0,1,.33,3.73,3.73,0,0,0,.46,0,2.7,2.7,0,0,0,.63-.07,2.6,2.6,0,0,0,1-.39,2.31,2.31,0,0,0,.72-.77,2.34,2.34,0,0,0,.27-1.14,2,2,0,0,0-.32-1.17A2.3,2.3,0,0,0,70.64,103.92Z"/><path class="cls-1" d="M78.81,107.52l.11-1.45-.44.28a5,5,0,0,1-1,.46,3.44,3.44,0,0,1-2.34-.08,2.92,2.92,0,0,1-.91-.64,3,3,0,0,1-.54-.92,3.25,3.25,0,0,1-.18-1.07A3.31,3.31,0,0,1,73.7,103a2.92,2.92,0,0,1,.55-.91,2.78,2.78,0,0,1,.91-.65,3.3,3.3,0,0,1,2.31-.08,5.48,5.48,0,0,1,1,.43l.43.24-.12-1.42-.12-.07a4.49,4.49,0,0,0-1-.4,4.57,4.57,0,0,0-2.77.18,4.27,4.27,0,0,0-1.37.85,4.22,4.22,0,0,0-.92,1.29,3.81,3.81,0,0,0-.34,1.61,4,4,0,0,0,.32,1.64,3.8,3.8,0,0,0,.9,1.28,3.91,3.91,0,0,0,1.36.84,4.8,4.8,0,0,0,1.71.3,4.33,4.33,0,0,0,1.13-.15,4.69,4.69,0,0,0,1.05-.41Z"/><path class="cls-1" d="M88.18,100.05l-1.25.13v7.43l-3.72-7.56h-.54l-4,7.91,1.32.16,1.39-2.81h3.07l1.4,2.81,1.09-.14v0h4.41v-.25a1.06,1.06,0,0,1,0-.27,2.33,2.33,0,0,0,.08-.36l.06-.29H88.18Zm-6.25,4.12,1-1.93,1,1.93Z"/><path class="cls-1" d="M100.33,106.81a3.44,3.44,0,0,1-2.34-.08,2.64,2.64,0,0,1-1.45-1.56,3.3,3.3,0,0,1,0-2.15,2.81,2.81,0,0,1,.55-.91,2.44,2.44,0,0,1,.91-.65,3.39,3.39,0,0,1,2.3-.08,5.29,5.29,0,0,1,1,.43l.43.24-.12-1.42-.12-.07a4.49,4.49,0,0,0-1-.4,4.61,4.61,0,0,0-2.78.18,4.23,4.23,0,0,0-1.36.85,4.13,4.13,0,0,0-.93,1.29,4.11,4.11,0,0,0,0,3.25,3.63,3.63,0,0,0,.9,1.28,3.8,3.8,0,0,0,1.36.84,4.73,4.73,0,0,0,1.71.3,4.33,4.33,0,0,0,1.13-.15,4.69,4.69,0,0,0,1-.41l.13-.07.11-1.45-.44.28A5,5,0,0,1,100.33,106.81Z"/><path class="cls-1" d="M109.5,101.19a4.27,4.27,0,0,0-1.37-.85,4.64,4.64,0,0,0-3.34,0,4.27,4.27,0,0,0-1.37.85,4.2,4.2,0,0,0-.92,1.3,3.88,3.88,0,0,0-.33,1.6,3.75,3.75,0,0,0,.34,1.61,4.06,4.06,0,0,0,.92,1.29,4.48,4.48,0,0,0,1.37.86,4.77,4.77,0,0,0,3.33,0,4.33,4.33,0,0,0,1.37-.87,4.06,4.06,0,0,0,.92-1.29,3.83,3.83,0,0,0,0-3.2A4,4,0,0,0,109.5,101.19Zm-.27,4a3,3,0,0,1-.64.92,3.23,3.23,0,0,1-1,.62,3.15,3.15,0,0,1-2.34,0,2.87,2.87,0,0,1-1-.61,3.24,3.24,0,0,1-.64-.92,2.85,2.85,0,0,1-.23-1.13,2.64,2.64,0,0,1,.23-1.12,2.86,2.86,0,0,1,1.59-1.54,3.1,3.1,0,0,1,1.18-.23,3,3,0,0,1,1.16.23,3.23,3.23,0,0,1,1,.62,3.15,3.15,0,0,1,.64.93,2.72,2.72,0,0,1,.23,1.11A2.77,2.77,0,0,1,109.23,105.21Z"/><path class="cls-1" d="M117.32,105.66c-.7-.8-1.43-1.62-2.22-2.48s-1.77-2-2.66-3l-.08-.1-.71,0v8l1.26-.13v-5.45l5,5.61h.71v-8l-1.26.13Z"/><polygon class="cls-1" points="125.22 100.17 119.2 100.17 119.04 101.33 121.56 101.33 121.56 108.08 122.81 107.94 122.81 101.32 125.22 101.32 125.22 100.17"/><path class="cls-1" d="M137.64,104.28a2.66,2.66,0,0,0-.54-.39,1.71,1.71,0,0,0,.38-.47,2.08,2.08,0,0,0,.26-1,2.23,2.23,0,0,0-.22-1,1.69,1.69,0,0,0-.59-.68,2.3,2.3,0,0,0-.83-.36,5.94,5.94,0,0,0-.93-.13c-.31,0-.64,0-.95,0l-.89,0h-.26v7.7l-3.85-7.82h-.55l-4,7.91,1.32.16,1.38-2.81h3.08l1.39,2.81,1.23-.16V108h2.41a3.39,3.39,0,0,0,1.42-.27,2.56,2.56,0,0,0,.94-.68,2,2,0,0,0,.36-1.92A2.28,2.28,0,0,0,137.64,104.28Zm-9.7-.11,1-1.93,1,1.93Zm6.39-2.85H135l0-.25h0v.25a2.78,2.78,0,0,1,.74.09,1.08,1.08,0,0,1,.52.31.8.8,0,0,1,.18.47v.23a.89.89,0,0,1-.19.64,1.2,1.2,0,0,1-.55.31,3.21,3.21,0,0,1-.79.11h-.57Zm2.51,5a.9.9,0,0,1-.33.31,1.87,1.87,0,0,1-.52.18c-.21,0-.43.06-.65.08h-1v-2.25h1.07a4.92,4.92,0,0,1,.64.09,1.61,1.61,0,0,1,.49.19,1,1,0,0,1,.31.35,1.07,1.07,0,0,1,.13.57A.81.81,0,0,1,136.84,106.3Z"/><path class="cls-1" d="M140.14,100.05l-1.25.13V108h4.4v-.25a.82.82,0,0,1,0-.28c0-.11.06-.23.08-.34l.06-.3h-3.33Z"/><polygon class="cls-1" points="145.27 104.63 148.53 104.63 148.53 103.47 145.27 103.47 145.27 101.32 148.88 101.32 148.74 100.17 144.02 100.17 144.02 108.02 148.89 108.02 149 106.85 145.27 106.85 145.27 104.63"/></g></g></svg>