<svg xmlns="http://www.w3.org/2000/svg" viewBox="0 0 93 68.27"><defs><style>.cls-1{fill:#522d6d;}</style></defs><title>Asset 4</title><g id="Layer_2" data-name="Layer 2"><g id="Layer_1-2" data-name="Layer 1"><path class="cls-1" d="M82.05,30.73c-3.16-1.58-9.1-1.6-9.35-1.6a1.37,1.37,0,0,0,0,2.73c1.53,0,6,.23,8.13,1.31a1.36,1.36,0,0,0,1.22-2.44Z"/><path class="cls-1" d="M88.84,50.13l-5.62-1.61A.57.57,0,0,1,82.8,48V46.1A11.13,11.13,0,0,0,84.11,45a10.06,10.06,0,0,0,3.06-7.25V35.19l.55-1.09a8.8,8.8,0,0,0,.91-3.87v-7a1.36,1.36,0,0,0-1.36-1.36H74.16a8.66,8.66,0,0,0-8.65,8.64v.09a7.28,7.28,0,0,0,.76,3.21l.7,1.4v2.22A10.65,10.65,0,0,0,71.34,46v2c0,.31,0,.43-1.12.75l-2.75.79-7.94-2.89a1.36,1.36,0,0,0-.37-1l-2.54-2.67V38.44c.27-.22.53-.45.79-.69a16,16,0,0,0,5-11.63V22.55a15.83,15.83,0,0,0,1.45-6.62V1.36A1.36,1.36,0,0,0,62.54,0H42.15a13,13,0,0,0-13,13v2.91a15.69,15.69,0,0,0,1.46,6.62v3.08a16.61,16.61,0,0,0,5.83,12.7v4.58l-2.54,2.67a1.33,1.33,0,0,0-.37,1l-8.39,3.05a7.26,7.26,0,0,0-1.68.88l-1.32-.66c3.92-1.7,5.16-4.1,5.22-4.22a1.38,1.38,0,0,0,0-1.22c-1-2-1.1-5.56-1.19-8.46,0-1-.07-1.87-.12-2.68-.47-6.53-5.44-11.46-11.56-11.46S3.38,26.78,2.92,33.31C2.86,34.12,2.83,35,2.8,36c-.1,2.9-.22,6.5-1.2,8.46a1.38,1.38,0,0,0,0,1.22c.06.12,1.3,2.51,5.22,4.22L3.17,51.72A5.69,5.69,0,0,0,0,56.85V66.91a1.36,1.36,0,0,0,2.72,0V56.85a3,3,0,0,1,1.67-2.69l4.55-2.28,1.58,1.5a5.73,5.73,0,0,0,7.9,0L20,51.88l1.49.74a7.17,7.17,0,0,0-1.1,3.8V66.91a1.37,1.37,0,0,0,2.73,0V56.42a4.47,4.47,0,0,1,2.94-4.19L34.89,49l3.68,5.51a2.83,2.83,0,0,0,2.07,1.25h.28a2.78,2.78,0,0,0,2-.83l2.24-2.24V66.91a1.37,1.37,0,0,0,2.73,0V52.72L50.12,55a2.8,2.8,0,0,0,2,.83h.28a2.82,2.82,0,0,0,2.07-1.25L58.14,49,67,52.23a4.48,4.48,0,0,1,2.94,4.2V66.91a1.36,1.36,0,0,0,2.72,0V56.43a7.2,7.2,0,0,0-2-5l.33-.1a7.3,7.3,0,0,0,1.27-.45l3.48,3.48V66.91a1.36,1.36,0,1,0,2.72,0V54.37l3.46-3.46a3.34,3.34,0,0,0,.58.23l5.62,1.61a3,3,0,0,1,2.19,2.89V66.91a1.36,1.36,0,1,0,2.72,0V55.64A5.75,5.75,0,0,0,88.84,50.13ZM8.74,47.72a9.75,9.75,0,0,1-4.37-2.8,15.06,15.06,0,0,0,.77-3.27,10.24,10.24,0,0,0,3.6,4.44Zm7.8,3.69a3,3,0,0,1-4.14,0L11.13,50.2a2.73,2.73,0,0,0,.33-1.33V47.42a10.08,10.08,0,0,0,6,0v1.45a2.92,2.92,0,0,0,.33,1.34Zm-2.07-6.25A7.38,7.38,0,0,1,7.1,37.78a1.36,1.36,0,0,0-1.37-1.36.82.82,0,0,0-.22,0c0-.12,0-.24,0-.36,0-.93.06-1.82.11-2.58a10.18,10.18,0,0,1,2.76-6.35,8.47,8.47,0,0,1,12.17,0,10.12,10.12,0,0,1,2.75,6.35c.05.76.08,1.65.11,2.58v.25a12.2,12.2,0,0,0-6.73-4.92,17.07,17.07,0,0,0-5.18-.82,1.34,1.34,0,0,0-.94.42L8.12,33.55a1.36,1.36,0,0,0,2,1.9l2.05-2.12c1.76.08,7.43.74,9.63,5.59A7.37,7.37,0,0,1,14.47,45.16Zm5.73,2.57V46.1a10,10,0,0,0,3.6-4.44,14.41,14.41,0,0,0,.78,3.26A9.94,9.94,0,0,1,20.2,47.73Zm13.11-22.1V22.25a1.38,1.38,0,0,0-.13-.6,13,13,0,0,1-1.32-5.72V13A10.3,10.3,0,0,1,42.15,2.72h19V15.93a13.13,13.13,0,0,1-1.32,5.72,1.39,1.39,0,0,0-.14.6v3.87a13.06,13.06,0,0,1-4.18,9.64,12.53,12.53,0,0,1-1,.89h0a13.09,13.09,0,0,1-8.84,2.64A13.5,13.5,0,0,1,33.31,25.63ZM41,53a.07.07,0,0,1-.07,0,.08.08,0,0,1-.07,0L36.6,46.67,38,45.23l6.42,4.4Zm5.54-5.26-7.38-5V40.19A15.29,15.29,0,0,0,45.46,42l1.07,0a15.77,15.77,0,0,0,7.36-1.8v2.49ZM52.2,53a.09.09,0,0,1-.07,0,.08.08,0,0,1-.08,0l-3.41-3.41,6.43-4.39,1.36,1.43Zm24.87-1.15L74,48.78a4,4,0,0,0,.08-.81V47.4a9.39,9.39,0,0,0,2.7.47h.32a10.38,10.38,0,0,0,3-.45V48a3,3,0,0,0,.1.8Zm5.14-8.8a7.33,7.33,0,0,1-5.37,2.08,7.63,7.63,0,0,1-7.15-7.74V34.86a1.23,1.23,0,0,0-.14-.6l-.84-1.69a4.41,4.41,0,0,1-.47-2v-.09a5.93,5.93,0,0,1,5.92-5.92H85.91v5.66a5.94,5.94,0,0,1-.63,2.65l-.69,1.38a1.36,1.36,0,0,0-.14.6v2.92A7.33,7.33,0,0,1,82.21,43.07Z"/><path class="cls-1" d="M85.81,56.81a1.36,1.36,0,0,0-1.36,1.36v8.74a1.36,1.36,0,0,0,2.72,0V58.17A1.36,1.36,0,0,0,85.81,56.81Z"/><path class="cls-1" d="M7.19,58.61A1.36,1.36,0,0,0,5.83,60v6.94a1.36,1.36,0,0,0,2.72,0V60A1.36,1.36,0,0,0,7.19,58.61Z"/><path class="cls-1" d="M57.68,16.42c-5.16-5.15-15.94-4.17-20.33-3.5A2.79,2.79,0,0,0,35,15.7v3.14a1.36,1.36,0,0,0,2.72,0V15.7a.1.1,0,0,1,.07-.09,43.47,43.47,0,0,1,8.85-.43c4.25.28,7.33,1.35,9.15,3.17a1.36,1.36,0,1,0,1.93-1.93Z"/><path class="cls-1" d="M30.49,59.72a1.36,1.36,0,0,0-1.36,1.36v5.83a1.37,1.37,0,0,0,2.73,0V61.08A1.36,1.36,0,0,0,30.49,59.72Z"/><path class="cls-1" d="M62.54,59.72a1.36,1.36,0,0,0-1.36,1.36v5.83a1.36,1.36,0,0,0,2.72,0V61.08A1.36,1.36,0,0,0,62.54,59.72Z"/></g></g></svg>