<svg xmlns="http://www.w3.org/2000/svg" viewBox="0 0 77.95 83.32"><defs><style>.cls-1{fill:#522d6d;}</style></defs><title>Asset 3</title><g id="Layer_2" data-name="Layer 2"><g id="Layer_1-2" data-name="Layer 1"><path class="cls-1" d="M72.57,10.75a5.37,5.37,0,0,0-5.37,5.38V26.88H65.85V24.19a1.35,1.35,0,0,0-2.69,0V40.32a1.35,1.35,0,0,0,2.69,0V29.57H67.2V73.92a1.39,1.39,0,0,0,.14.6l4,8.06a1.35,1.35,0,0,0,1.81.6,1.39,1.39,0,0,0,.6-.6l4-8.06a1.39,1.39,0,0,0,.14-.6V16.13A5.39,5.39,0,0,0,72.57,10.75ZM75.26,73.6,72.57,79,69.88,73.6v-1h5.38Zm0-3.72H69.88v-47h5.38Zm0-49.72H69.88v-4a2.69,2.69,0,0,1,5.38,0Z"/><path class="cls-1" d="M60.48,0H1.34A1.34,1.34,0,0,0,0,1.34V82a1.34,1.34,0,0,0,1.34,1.34H47a1.36,1.36,0,0,0,1-.39L61.43,69.49a1.34,1.34,0,0,0,.39-.95V1.34A1.34,1.34,0,0,0,60.48,0ZM48.38,78.74V69.88h8.85ZM59.13,67.2H47a1.35,1.35,0,0,0-1.35,1.34v12.1h-43V2.69H59.13Z"/><path class="cls-1" d="M8.06,8.06H22.85a1.34,1.34,0,0,0,0-2.68H8.06a1.34,1.34,0,0,0,0,2.68Z"/><path class="cls-1" d="M8.06,12.1h4a1.35,1.35,0,0,0,0-2.69h-4a1.35,1.35,0,0,0,0,2.69Z"/><path class="cls-1" d="M18.82,44.35H8.06a1.34,1.34,0,0,0-1.34,1.34V56.45a1.34,1.34,0,0,0,1.34,1.34H18.82a1.34,1.34,0,0,0,1.34-1.34V45.69A1.34,1.34,0,0,0,18.82,44.35ZM17.47,55.1H9.41V47h8.06Z"/><path class="cls-1" d="M36.29,44.35H25.53a1.34,1.34,0,0,0-1.34,1.34V56.45a1.34,1.34,0,0,0,1.34,1.34H36.29a1.34,1.34,0,0,0,1.34-1.34V45.69A1.34,1.34,0,0,0,36.29,44.35ZM34.94,55.1H26.88V47h8.06Z"/><path class="cls-1" d="M53.76,44.35H43a1.34,1.34,0,0,0-1.35,1.34V56.45A1.34,1.34,0,0,0,43,57.79H53.76a1.34,1.34,0,0,0,1.34-1.34V45.69A1.34,1.34,0,0,0,53.76,44.35ZM52.41,55.1H44.35V47h8.06Z"/><path class="cls-1" d="M8.06,34.94h45.7A1.34,1.34,0,0,0,55.1,33.6V14.78a1.34,1.34,0,0,0-1.34-1.34H8.06a1.34,1.34,0,0,0-1.34,1.34V33.6A1.34,1.34,0,0,0,8.06,34.94ZM9.41,16.13h43V32.25h-43Z"/><path class="cls-1" d="M16.13,9.41a1.35,1.35,0,1,0,0,2.69h1.34a1.35,1.35,0,1,0,0-2.69Z"/><path class="cls-1" d="M8.06,39h45.7a1.34,1.34,0,1,0,0-2.68H8.06a1.34,1.34,0,0,0,0,2.68Z"/><path class="cls-1" d="M40.32,40.32H8.06a1.35,1.35,0,0,0,0,2.69H40.32a1.35,1.35,0,0,0,0-2.69Z"/><path class="cls-1" d="M45.69,43a1.35,1.35,0,1,0,0-2.69H44.35a1.35,1.35,0,0,0,0,2.69Z"/><path class="cls-1" d="M18.82,59.13H8.06a1.35,1.35,0,0,0,0,2.69H18.82a1.35,1.35,0,0,0,0-2.69Z"/><path class="cls-1" d="M18.82,63.16H8.06a1.35,1.35,0,0,0,0,2.69H18.82a1.35,1.35,0,0,0,0-2.69Z"/><path class="cls-1" d="M18.82,67.2H8.06a1.34,1.34,0,1,0,0,2.68H18.82a1.34,1.34,0,0,0,0-2.68Z"/><path class="cls-1" d="M36.29,59.13H25.53a1.35,1.35,0,0,0,0,2.69H36.29a1.35,1.35,0,0,0,0-2.69Z"/><path class="cls-1" d="M36.29,63.16H25.53a1.35,1.35,0,0,0,0,2.69H36.29a1.35,1.35,0,0,0,0-2.69Z"/><path class="cls-1" d="M36.29,67.2H25.53a1.34,1.34,0,1,0,0,2.68H36.29a1.34,1.34,0,0,0,0-2.68Z"/><path class="cls-1" d="M53.76,59.13H43a1.35,1.35,0,1,0,0,2.69H53.76a1.35,1.35,0,0,0,0-2.69Z"/><path class="cls-1" d="M53.76,65.85a1.35,1.35,0,0,0,0-2.69H43a1.35,1.35,0,1,0,0,2.69Z"/></g></g></svg>