<svg xmlns="http://www.w3.org/2000/svg" viewBox="0 0 69.79 86"><defs><style>.cls-1{fill:#522d6d;}</style></defs><title>Asset 4</title><g id="Layer_2" data-name="Layer 2"><g id="Layer_1-2" data-name="Layer 1"><path class="cls-1" d="M67,38.85H48V25.71h12a1,1,0,0,0,1-1.05V7.54A7.54,7.54,0,0,0,53.78,0H8.51A8.52,8.52,0,0,0,0,8.51V68.87a1.07,1.07,0,0,0,.59.95,1.06,1.06,0,0,0,1.11-.13l5.08-4.07,5.09,4.07a1,1,0,0,0,1.31,0l5.08-4.07,5.08,4.07a1,1,0,0,0,1.31,0l5.08-4.07,5.08,4.07a1,1,0,0,0,1.31,0l.11-.09V83.2A2.8,2.8,0,0,0,39,86H67a2.8,2.8,0,0,0,2.8-2.8V41.65A2.8,2.8,0,0,0,67,38.85ZM58.88,7.54V23.61H48V7.54a5.45,5.45,0,0,1,10.9,0Zm-23.42,60-5.08-4.07a1.07,1.07,0,0,0-1.31,0L24,67.53l-5.08-4.07a1.07,1.07,0,0,0-1.31,0l-5.08,4.07L7.44,63.46a1.07,1.07,0,0,0-1.31,0l-4,3.23V8.51A6.41,6.41,0,0,1,8.51,2.1H48.22a7.53,7.53,0,0,0-2.34,5.44V38.85H39a2.79,2.79,0,0,0-2.79,2.8V66.92ZM67.69,83.2a.7.7,0,0,1-.7.7H39a.7.7,0,0,1-.7-.7V41.65A.7.7,0,0,1,39,41H67a.7.7,0,0,1,.7.7Z"/><path class="cls-1" d="M64.81,42.78H41.21a1,1,0,0,0-1.05,1V50a1,1,0,0,0,1.05,1h23.6a1,1,0,0,0,1-1V43.83A1,1,0,0,0,64.81,42.78ZM63.76,48.9H42.26v-4h21.5Z"/><path class="cls-1" d="M46.45,54.8H41.21a1,1,0,0,0-1.05,1.05v5.24a1,1,0,0,0,1.05,1h5.24a1,1,0,0,0,1-1V55.85A1,1,0,0,0,46.45,54.8ZM45.4,60H42.26V56.9H45.4Z"/><path class="cls-1" d="M55.24,54.8H50a1,1,0,0,0-1.05,1.05v5.24a1,1,0,0,0,1.05,1h5.25a1,1,0,0,0,1-1V55.85A1,1,0,0,0,55.24,54.8ZM54.19,60H51V56.9h3.15Z"/><path class="cls-1" d="M64.81,54.8H59.56a1,1,0,0,0-1.05,1.05v5.24a1,1,0,0,0,1.05,1h5.25a1,1,0,0,0,1-1V55.85A1,1,0,0,0,64.81,54.8ZM63.76,60H60.61V56.9h3.15Z"/><path class="cls-1" d="M46.45,64H41.21a1,1,0,0,0-1.05,1v5.25a1,1,0,0,0,1.05,1h5.24a1,1,0,0,0,1-1V65A1,1,0,0,0,46.45,64ZM45.4,69.22H42.26V66.07H45.4Z"/><path class="cls-1" d="M55.24,64H50a1,1,0,0,0-1.05,1v5.25a1,1,0,0,0,1.05,1h5.25a1,1,0,0,0,1-1V65A1,1,0,0,0,55.24,64Zm-1.05,5.24H51V66.07h3.15Z"/><path class="cls-1" d="M64.81,64H59.56a1,1,0,0,0-1.05,1v5.25a1,1,0,0,0,1.05,1h5.25a1,1,0,0,0,1-1V65A1,1,0,0,0,64.81,64Zm-1.05,5.24H60.61V66.07h3.15Z"/><path class="cls-1" d="M46.45,73.15H41.21a1,1,0,0,0-1.05,1v5.25a1,1,0,0,0,1.05,1h5.24a1,1,0,0,0,1-1V74.2A1,1,0,0,0,46.45,73.15ZM45.4,78.4H42.26V75.25H45.4Z"/><path class="cls-1" d="M55.24,73.15H50a1,1,0,0,0-1.05,1v5.25a1,1,0,0,0,1.05,1h5.25a1,1,0,0,0,1-1V74.2A1,1,0,0,0,55.24,73.15ZM54.19,78.4H51V75.25h3.15Z"/><path class="cls-1" d="M64.81,73.15H59.56a1,1,0,0,0-1.05,1v5.25a1,1,0,0,0,1.05,1h5.25a1,1,0,0,0,1-1V74.2A1,1,0,0,0,64.81,73.15ZM63.76,78.4H60.61V75.25h3.15Z"/><path class="cls-1" d="M7,31.46h.41a1,1,0,1,0,0-2.09H7a1,1,0,1,0,0,2.09Z"/><path class="cls-1" d="M14.61,29.37h-3.1a1,1,0,1,0,0,2.09h3.1a1,1,0,0,0,0-2.09Z"/><path class="cls-1" d="M42,30.41a1,1,0,0,0-1.05-1H18.76a1,1,0,0,0,0,2.09H41A1,1,0,0,0,42,30.41Z"/><path class="cls-1" d="M7,22.72h.41a1,1,0,1,0,0-2.09H7a1,1,0,1,0,0,2.09Z"/><path class="cls-1" d="M14.61,20.63h-3.1a1,1,0,1,0,0,2.09h3.1a1,1,0,0,0,0-2.09Z"/><path class="cls-1" d="M18.76,22.72H41a1,1,0,1,0,0-2.09H18.76a1,1,0,0,0,0,2.09Z"/><path class="cls-1" d="M7,14h.41a1,1,0,1,0,0-2.09H7A1,1,0,1,0,7,14Z"/><path class="cls-1" d="M14.61,11.89h-3.1a1,1,0,1,0,0,2.09h3.1a1,1,0,0,0,0-2.09Z"/><path class="cls-1" d="M18.76,14H41a1,1,0,1,0,0-2.09H18.76a1,1,0,0,0,0,2.09Z"/><path class="cls-1" d="M7,40.2h.41a1,1,0,1,0,0-2.09H7A1,1,0,1,0,7,40.2Z"/><path class="cls-1" d="M14.61,38.11h-3.1a1,1,0,1,0,0,2.09h3.1a1,1,0,0,0,0-2.09Z"/><path class="cls-1" d="M18.76,40.2H32.24a1,1,0,1,0,0-2.09H18.76a1,1,0,0,0,0,2.09Z"/><path class="cls-1" d="M9.61,49.73a1.56,1.56,0,0,1,1.56,1.56,1,1,0,0,0,2.09,0,3.65,3.65,0,0,0-2.6-3.5v-.54a1,1,0,0,0-2.1,0v.54a3.65,3.65,0,0,0,1,7.15,1.56,1.56,0,1,1,0,3.11h0A1.56,1.56,0,0,1,8.05,56.5a1,1,0,0,0-2.1,0A3.69,3.69,0,0,0,8.56,60v.65a1,1,0,0,0,2.1,0V60a3.66,3.66,0,0,0-1.05-7.16,1.56,1.56,0,1,1,0-3.11Z"/><path class="cls-1" d="M33.47,55.71h-4a1,1,0,1,0,0,2.1h4a1,1,0,1,0,0-2.1Z"/><path class="cls-1" d="M25.77,55.71H18a1,1,0,1,0,0,2.1h7.78a1,1,0,1,0,0-2.1Z"/></g></g></svg>