<svg xmlns="http://www.w3.org/2000/svg" viewBox="0 0 86 86"><defs><style>.cls-1{fill:#522d6d;}</style></defs><title>Asset 3</title><g id="Layer_2" data-name="Layer 2"><g id="Layer_1-2" data-name="Layer 1"><path class="cls-1" d="M84.61,74.9H74.9v-68A6.94,6.94,0,0,0,68,0h-61A6.94,6.94,0,0,0,0,6.94V9.71A1.39,1.39,0,0,0,1.39,11.1H11.1v68A6.94,6.94,0,0,0,18,86h61A6.94,6.94,0,0,0,86,79.06V76.29A1.39,1.39,0,0,0,84.61,74.9ZM2.77,6.94A4.17,4.17,0,0,1,6.94,2.77H62.42A6.94,6.94,0,0,0,61,6.94V8.32H2.77ZM22.19,76.29v2.77a4.16,4.16,0,1,1-8.32,0v-68H62.42a1.39,1.39,0,0,0,1.39-1.39V6.94a4.16,4.16,0,1,1,8.32,0v68H23.58A1.39,1.39,0,0,0,22.19,76.29Zm61,2.77a4.17,4.17,0,0,1-4.17,4.17H23.58A6.94,6.94,0,0,0,25,79.06V77.68H83.23Z"/><path class="cls-1" d="M29.13,38.84A12.5,12.5,0,0,0,41.61,26.35a12.27,12.27,0,0,0-.91-4.68l-2.57,1a9.54,9.54,0,0,1,.71,3.63,9.7,9.7,0,1,1-5-8.49l1.35-2.43a12.49,12.49,0,1,0-6.05,23.41Z"/><path class="cls-1" d="M24.56,25.37l-2,2,5.55,5.54a1.34,1.34,0,0,0,1,.41h.16a1.39,1.39,0,0,0,1-.65l11.1-18L39,13.14,28.87,29.68Z"/><path class="cls-1" d="M16.65,41.61h2.77v2.78H16.65Z"/><path class="cls-1" d="M22.19,41.61H69.35v2.78H22.19Z"/><path class="cls-1" d="M66.58,47.16h2.77v2.78H66.58Z"/><path class="cls-1" d="M16.65,47.16H63.81v2.78H16.65Z"/><path class="cls-1" d="M16.65,52.71h2.77v2.77H16.65Z"/><path class="cls-1" d="M22.19,52.71H69.35v2.77H22.19Z"/><path class="cls-1" d="M66.58,58.26h2.77V61H66.58Z"/><path class="cls-1" d="M16.65,58.26H63.81V61H16.65Z"/><path class="cls-1" d="M16.65,63.81h2.77v2.77H16.65Z"/><path class="cls-1" d="M22.19,63.81H69.35v2.77H22.19Z"/><path class="cls-1" d="M66.58,69.35h2.77v2.78H66.58Z"/><path class="cls-1" d="M16.65,69.35H63.81v2.78H16.65Z"/></g></g></svg>